<svg width="48" height="32" viewBox="0 0 48 32" fill="none" xmlns="http://www.w3.org/2000/svg">
<path d="M47.8125 0.625C46.9792 3.91667 46.1458 7.41667 45.3125 11.125C44.4792 14.8333 43.7083 18.5 43 22.125C42.3333 25.7083 41.7917 28.9792 41.375 31.9375H27.0625L26.1875 30.5625C26.9375 27.5208 27.8958 24.2708 29.0625 20.8125C30.2708 17.3542 31.5625 13.8958 32.9375 10.4375C34.3542 6.9375 35.7708 3.66667 37.1875 0.625H47.8125ZM21.75 0.625C20.9167 3.91667 20.0833 7.41667 19.25 11.125C18.4167 14.8333 17.6458 18.5 16.9375 22.125C16.2708 25.7083 15.7083 28.9792 15.25 31.9375H1L0.1875 30.5625C0.9375 27.5208 1.89583 24.2708 3.0625 20.8125C4.22917 17.3542 5.5 13.8958 6.875 10.4375C8.29167 6.9375 9.70833 3.66667 11.125 0.625H21.75Z" fill="white"/>
</svg>
